<svg xmlns="http://www.w3.org/2000/svg" viewBox="0 0 48 48"><radialGradient id="9hjhbQPPDDWjZAXoceutsa" cx="24" cy="24" r="18" fx="23.905" fy="16.289" gradientTransform="matrix(-1 0 0 1 48 0)" gradientUnits="userSpaceOnUse"><stop offset="0" stop-color="#ffe16e"/><stop offset=".629" stop-color="#ffd426"/><stop offset=".72" stop-color="#fdcd23"/><stop offset=".854" stop-color="#f8b919"/><stop offset="1" stop-color="#f09c0c"/></radialGradient><circle cx="24" cy="24" r="18" fill="url(#9hjhbQPPDDWjZAXoceutsa)"/><circle cx="27.5" cy="24.5" r=".5" fill="#212121"/><path fill="#212121" d="M34.258,24.061c0,0-1.726,0.944-3.258,0.944s-3.258-0.944-3.258-0.944l-0.631,0.754 c0,0,1.765,2.185,3.889,2.185s3.889-2.185,3.889-2.185L34.258,24.061z"/><circle cx="34.5" cy="24.5" r=".5" fill="#212121"/><circle cx="13.5" cy="24.5" r=".5" fill="#212121"/><path fill="#212121" d="M20.258,24.061c0,0-1.726,0.944-3.258,0.944s-3.258-0.944-3.258-0.944l-0.631,0.754 c0,0,1.765,2.185,3.889,2.185s3.889-2.185,3.889-2.185L20.258,24.061z"/><circle cx="20.5" cy="24.5" r=".5" fill="#212121"/><path fill="#805b2a" d="M36.457,19.998c-0.827-0.044-1.607-0.148-2.403-0.292c-0.792-0.146-1.578-0.339-2.357-0.584 c-1.551-0.501-3.088-1.233-4.413-2.402c-0.422-0.372-0.462-1.015-0.09-1.437c0.372-0.422,1.015-0.462,1.437-0.09 c0.029,0.026,0.056,0.052,0.081,0.08l0.006,0.007c0.916,1.013,2.161,1.819,3.517,2.425c1.356,0.598,2.841,1.047,4.309,1.297 l0.024,0.004c0.272,0.047,0.455,0.305,0.409,0.577C36.933,19.836,36.707,20.012,36.457,19.998z"/><path fill="#805b2a" d="M11.457,19.002c1.468-0.251,2.953-0.7,4.309-1.297c1.356-0.606,2.602-1.412,3.517-2.425l0.005-0.006 c0.377-0.417,1.021-0.45,1.438-0.073c0.417,0.377,0.45,1.021,0.073,1.438c-0.026,0.029-0.054,0.056-0.082,0.081 c-1.326,1.169-2.863,1.901-4.413,2.402c-0.779,0.245-1.566,0.439-2.357,0.584c-0.796,0.144-1.577,0.248-2.403,0.292 c-0.276,0.015-0.511-0.197-0.526-0.473c-0.014-0.256,0.168-0.477,0.415-0.519L11.457,19.002z"/><radialGradient id="9hjhbQPPDDWjZAXoceutsb" cx="-129.107" cy="24.762" r="3.326" gradientTransform="matrix(.0157 1.116 -3.2952 .1212 107.616 172.793)" gradientUnits="userSpaceOnUse"><stop offset=".629" stop-color="#ffe16e"/><stop offset=".871" stop-color="#ffe16e" stop-opacity="0"/></radialGradient><path fill="url(#9hjhbQPPDDWjZAXoceutsb)" d="M19.17,34.252c0,0,1.116,0.748,4.83,0.748c3.44,0,4.827-0.748,4.827-0.748s-0.863-1.485-4.827-1.485S19.17,34.252,19.17,34.252z"/><radialGradient id="9hjhbQPPDDWjZAXoceutsc" cx="1186.152" cy="-528.793" r="8.277" gradientTransform="matrix(-.618 0 0 -.3776 757.03 -166.884)" gradientUnits="userSpaceOnUse"><stop offset=".284" stop-color="#cc9000"/><stop offset="1" stop-color="#cc9000" stop-opacity="0"/></radialGradient><path fill="url(#9hjhbQPPDDWjZAXoceutsc)" d="M24,34c3.392,0,4.31,0.609,4.31,0.609S27.43,36,24,36s-4.31-1.391-4.31-1.391S20.608,34,24,34z"/><radialGradient id="9hjhbQPPDDWjZAXoceutsd" cx="-1656.633" cy="-39.606" r="15.654" gradientTransform="matrix(.35 0 0 -.1877 603.801 26.11)" gradientUnits="userSpaceOnUse"><stop offset="0" stop-color="#1c1911"/><stop offset=".999" stop-color="#171714"/></radialGradient><path fill="url(#9hjhbQPPDDWjZAXoceutsd)" d="M28.701,34.195c0.501,0.276,0.995-0.358,0.608-0.779C28.185,32.194,26.458,31,24,31s-4.185,1.194-5.309,2.416c-0.387,0.421,0.107,1.055,0.608,0.779C20.45,33.559,22.024,33,24,33S27.55,33.559,28.701,34.195z"/></svg>